<svg width="9" height="12" viewBox="0 0 9 12" fill="none" xmlns="http://www.w3.org/2000/svg">
<path d="M8.45039 2.96609L8.0515 4.40697H0.431931L0.830818 2.96609H8.45039ZM4.76271 11.88L0.668007 7.05265L0.659866 5.83971H2.60546C3.11018 5.83971 3.52534 5.75016 3.85097 5.57107C4.18202 5.38655 4.42895 5.13962 4.59176 4.83028C4.75457 4.51551 4.83598 4.16546 4.83598 3.78014C4.83598 3.36226 4.76 2.99322 4.60804 2.67303C4.45608 2.35283 4.21458 2.10319 3.88353 1.9241C3.55248 1.745 3.1156 1.65546 2.5729 1.65546H0.440071L0.879662 0.0273438H2.5729C3.53349 0.0273438 4.33126 0.17116 4.96622 0.458794C5.60119 0.746427 6.07605 1.16431 6.39082 1.71244C6.71102 2.26057 6.87112 2.92267 6.87112 3.69874C6.87112 4.37712 6.75444 4.97681 6.52107 5.4978C6.28771 6.01337 5.91053 6.43125 5.38953 6.75145C4.86854 7.06622 4.17659 7.26159 3.31369 7.33757L7.05835 11.7742V11.88H4.76271ZM8.45853 0.0273438L8.0515 1.46822H1.82397L2.22285 0.0273438H8.45853Z" fill="white"/>
</svg>
